<?xml version="1.0" encoding="UTF-8"?>
<svg version="1.1" xmlns="http://www.w3.org/2000/svg" width="512" height="512">
<path d="M0 0 C0.90045044 -0.00705963 1.80090088 -0.01411926 2.7286377 -0.02139282 C40.56271231 -0.2507174 40.56271231 -0.2507174 57.20703125 3.203125 C58.69759033 3.50911621 58.69759033 3.50911621 60.21826172 3.82128906 C116.92522511 15.81380371 171.93488599 46.2140709 207.20703125 93.203125 C207.94300537 94.18104004 207.94300537 94.18104004 208.69384766 95.17871094 C216.17006772 105.16645615 223.11651041 115.31319857 229.20703125 126.203125 C229.60486816 126.90453613 230.00270508 127.60594727 230.41259766 128.32861328 C248.66086947 160.73122155 260.21390279 198.63338691 260.41015625 235.99609375 C260.41721588 236.89654419 260.42427551 237.79699463 260.43154907 238.72473145 C260.66087365 276.55880606 260.66087365 276.55880606 257.20703125 293.203125 C256.90104004 294.69368408 256.90104004 294.69368408 256.58886719 296.21435547 C242.51250897 362.77483535 204.09457829 420.03311569 147.23681641 457.50146484 C142.97655694 460.21784308 138.61596235 462.73729689 134.20703125 465.203125 C133.50562012 465.60096191 132.80420898 465.99879883 132.08154297 466.40869141 C99.6789347 484.65696322 61.77676934 496.20999654 24.4140625 496.40625 C23.06338684 496.41683945 23.06338684 496.41683945 21.6854248 496.42764282 C-16.14864981 496.6569674 -16.14864981 496.6569674 -32.79296875 493.203125 C-34.28352783 492.89713379 -34.28352783 492.89713379 -35.80419922 492.58496094 C-102.29810922 478.52268106 -159.75561962 440.10251905 -197.10742188 383.20068359 C-199.80859884 378.94578085 -202.3224062 374.59485547 -204.79296875 370.203125 C-205.15310059 369.57712402 -205.51323242 368.95112305 -205.88427734 368.30615234 C-224.38936501 335.98545493 -235.69710889 297.67901619 -236.03125 260.33203125 C-236.04104385 259.42023102 -236.05083771 258.50843079 -236.06092834 257.56900024 C-236.23260511 237.44104818 -236.06932869 217.96420382 -231.79296875 198.203125 C-231.57866211 197.18605469 -231.36435547 196.16898438 -231.14355469 195.12109375 C-222.96279434 157.25381879 -206.04522667 122.38317423 -181.79296875 92.203125 C-181.32068848 91.61515137 -180.8484082 91.02717773 -180.36181641 90.42138672 C-169.28155041 76.78092213 -156.86582205 63.76685597 -142.79296875 53.203125 C-142.14102539 52.71247559 -141.48908203 52.22182617 -140.81738281 51.71630859 C-130.82707934 44.23817357 -120.66915508 37.32151018 -109.79296875 31.203125 C-109.16696777 30.84299316 -108.5409668 30.48286133 -107.89599609 30.11181641 C-75.65552438 11.65266164 -37.27934428 0.19581559 0 0 Z " fill="#E5EBFF" transform="translate(243.79296875,7.796875)"/>
<path d="M0 0 C0.80195801 0.01015137 1.60391602 0.02030273 2.43017578 0.03076172 C20.90950574 0.28257186 40.51228832 4.08812364 58 10 C58.81678223 10.26651367 59.63356445 10.53302734 60.47509766 10.80761719 C92.8802841 21.40129009 122.09778537 36.64490394 148 59 C148.76828125 59.65742188 149.5365625 60.31484375 150.328125 60.9921875 C161.08598375 70.43203044 171.55094408 80.50966718 180.4375 91.75 C180.89181396 92.32194092 181.34612793 92.89388184 181.81420898 93.4831543 C186.12975119 99.12290839 186.12975119 99.12290839 186 102 C184.45146604 104.24081972 182.94411165 106.12532991 181.125 108.125 C180.61759277 108.70121094 180.11018555 109.27742188 179.58740234 109.87109375 C178.55217232 111.04307679 177.51131911 112.21011731 176.46484375 113.37207031 C175.20250269 114.77495202 173.95878194 116.19454812 172.71875 117.6171875 C154.49695798 138.35467468 133.09718101 155.52292243 109 169 C108.29858887 169.39783691 107.59717773 169.79567383 106.87451172 170.20556641 C74.47190345 188.45383822 36.56973809 200.00687154 -0.79296875 200.203125 C-2.14364441 200.21371445 -2.14364441 200.21371445 -3.52160645 200.22451782 C-41.35568106 200.4538424 -41.35568106 200.4538424 -58 197 C-58.99370605 196.79600586 -59.98741211 196.59201172 -61.01123047 196.38183594 C-118.54937485 184.21354128 -171.48666383 153.59867297 -208 107 C-208.763125 106.15308594 -209.52625 105.30617188 -210.3125 104.43359375 C-212 102 -212 102 -211.9375 99.9453125 C-208.55819866 92.93326221 -202.39331719 87.10007682 -197.19140625 81.4140625 C-195.22603014 79.24899577 -193.32774587 77.04290401 -191.4375 74.8125 C-188.5622121 71.51515149 -185.478947 68.65431493 -182.140625 65.83203125 C-179.84389652 63.86640049 -177.64874011 61.81113937 -175.4375 59.75 C-146.62454554 33.8708874 -110.32625867 16.39039698 -73 7 C-72.2579834 6.80712402 -71.5159668 6.61424805 -70.75146484 6.41552734 C-47.41969609 0.41383666 -23.99210353 -0.55692662 0 0 Z " fill="#4294FF" transform="translate(269,304)"/>
<path d="M0 0 C1.7634375 0.5259375 1.7634375 0.5259375 3.5625 1.0625 C18.38520567 5.82694111 30.15111332 14.02587365 41 25 C41.80050781 25.79019531 42.60101563 26.58039063 43.42578125 27.39453125 C60.97568322 45.6718903 68.55777847 70.21723653 68.4921875 95.15820312 C67.80585511 121.29030895 56.0778925 143.66124325 38 162 C37.28199219 162.73089844 36.56398438 163.46179688 35.82421875 164.21484375 C26.09624916 173.46649091 13.74557004 180.0243176 1 184 C-0.2478125 184.391875 -1.495625 184.78375 -2.78125 185.1875 C-26.443539 191.97317827 -52.42874911 188.60124604 -74 177 C-82.19443553 172.25941746 -89.16939302 166.51958109 -96 160 C-96.60199219 159.47277344 -97.20398438 158.94554687 -97.82421875 158.40234375 C-113.45199248 144.15884835 -122.80680373 120.57218172 -124.14257812 99.78076172 C-125.22026599 72.86605721 -118.53609158 49.12139372 -100.4375 28.6875 C-98.96419849 27.11946845 -97.485556 25.55642656 -96 24 C-95.47277344 23.39800781 -94.94554687 22.79601562 -94.40234375 22.17578125 C-71.50730528 -2.94435047 -31.34500954 -10.26819278 0 0 Z " fill="#4294FF" transform="translate(284,84)"/>
</svg>
