<svg width="24" height="24" viewBox="0 0 24 24" fill="none" xmlns="http://www.w3.org/2000/svg">
<path d="M21.0507 10.1125L22.5285 10.1763L22.4966 10.1444C22.5681 10.1371 22.6404 10.1444 22.709 10.1658C22.7776 10.1872 22.8412 10.2224 22.8958 10.2691C22.9505 10.3158 22.9951 10.3731 23.027 10.4376C23.0589 10.502 23.0773 10.5723 23.0813 10.644C23.068 10.7813 23.004 10.9086 22.9017 11.001C22.7994 11.0934 22.6663 11.1443 22.5285 11.1437H21.0507C20.8393 11.1358 20.6316 11.0857 20.4399 10.9962C20.2482 10.9067 20.0763 10.7798 19.9345 10.6228L19.3073 9.83609L19.0309 12.4407L20.8275 14.4287C20.9487 14.5651 21.0398 14.7256 21.0947 14.8996C21.1497 15.0736 21.1673 15.2573 21.1464 15.4386L20.785 18.5322C20.7718 18.661 20.7111 18.7802 20.6148 18.8667C20.5185 18.9531 20.3935 19.0007 20.2641 19H20.2003C20.1317 18.9921 20.0653 18.9707 20.005 18.9369C19.9448 18.9031 19.8919 18.8577 19.8493 18.8033C19.8068 18.7489 19.7755 18.6866 19.7573 18.62C19.739 18.5534 19.7342 18.4838 19.7431 18.4153L20.1046 15.3217C20.1047 15.2559 20.0821 15.1921 20.0408 15.1409L18.882 13.8546V14.1735C18.8503 14.4589 18.7311 14.7276 18.5408 14.9426C18.3505 15.1577 18.0984 15.3086 17.8189 15.3748L17.5 15.4599V14.3968C17.5688 14.381 17.6307 14.3436 17.6766 14.29C17.7226 14.2364 17.7501 14.1695 17.7551 14.0991L18.2442 9.55968L17.6063 10.1019H17.5V8.76236L18.6269 7.98629C18.6652 7.97639 18.7055 7.97639 18.7438 7.98629C18.845 7.95571 18.9531 7.95661 19.0537 7.98889C19.1543 8.02117 19.2428 8.0833 19.3073 8.16702L20.6893 9.97429C20.7881 10.0641 20.9172 10.1135 21.0507 10.1125Z" fill="#3E3E52"/>
<path d="M20.2827 7.48148C20.0569 7.6199 19.7952 7.68829 19.5305 7.678C19.3541 7.67256 19.1806 7.63203 19.02 7.55879C18.8594 7.48555 18.7151 7.38106 18.5953 7.25141C18.4756 7.12177 18.3828 6.96957 18.3225 6.8037C18.2623 6.63783 18.2356 6.46162 18.2442 6.28534C18.2549 6.02071 18.3438 5.76521 18.4997 5.5511C18.6555 5.33699 18.8714 5.1739 19.1199 5.08243C19.3685 4.99096 19.6386 4.97522 19.896 5.0372C20.1535 5.09917 20.3869 5.23609 20.5666 5.43063C20.7463 5.62518 20.8643 5.86863 20.9056 6.13022C20.947 6.3918 20.9099 6.65979 20.799 6.9003C20.6882 7.14081 20.5085 7.34306 20.2827 7.48148Z" fill="#3E3E52"/>
<path d="M13.1895 4.16234H5.00955C4.74563 4.16213 4.48429 4.21415 4.24058 4.31542C3.99687 4.41668 3.7756 4.56517 3.58955 4.75234C2.66955 5.57234 3.07955 7.34234 2.99955 8.56234C2.99955 9.09277 3.21026 9.60148 3.58533 9.97655C3.96041 10.3516 4.46911 10.5623 4.99955 10.5623H13.1795C13.71 10.5623 14.2187 10.3516 14.5938 9.97655C14.9688 9.60148 15.1795 9.09277 15.1795 8.56234V6.16234C15.1796 5.63363 14.9702 5.12644 14.5973 4.75165C14.2244 4.37686 13.7182 4.16498 13.1895 4.16234V4.16234ZM5.00955 9.57234C4.73979 9.55466 4.48672 9.43553 4.30121 9.23889C4.1157 9.04224 4.01149 8.78267 4.00955 8.51234V6.16234C4.02392 5.9018 4.13389 5.65571 4.3184 5.4712C4.50292 5.28668 4.749 5.17671 5.00955 5.16234H13.1895C13.4589 5.16445 13.7173 5.26899 13.9123 5.45472C14.1073 5.64045 14.2243 5.89346 14.2395 6.16234V8.51234C14.2396 8.79174 14.1293 9.05985 13.9326 9.25836C13.736 9.45686 13.4689 9.5697 13.1895 9.57234" fill="#3E3E52"/>
<path d="M5.43036 15.4723C5.82818 15.5108 6.22499 15.3896 6.53349 15.1355C6.84198 14.8814 7.0369 14.5152 7.07536 14.1173C7.11381 13.7195 6.99266 13.3227 6.73855 13.0142C6.48443 12.7057 6.11818 12.5108 5.72036 12.4723C5.32253 12.4339 4.92572 12.555 4.61723 12.8091C4.30873 13.0633 4.11381 13.4295 4.07536 13.8273C4.0369 14.2252 4.15805 14.622 4.41217 14.9305C4.66628 15.239 5.03253 15.4339 5.43036 15.4723V15.4723Z" fill="#3E3E52"/>
<path d="M11.9799 12.7823C12.1462 12.6797 12.3319 12.6122 12.5254 12.5841C12.7189 12.5561 12.9161 12.5679 13.1048 12.6191C13.2935 12.6702 13.4697 12.7595 13.6225 12.8814C13.7754 13.0033 13.9016 13.1553 13.9934 13.3279C14.0852 13.5005 14.1406 13.6902 14.1562 13.885C14.1718 14.0799 14.1473 14.2759 14.0842 14.461C14.0211 14.646 13.9207 14.8162 13.7892 14.9609C13.6578 15.1056 13.498 15.2218 13.3199 15.3023C12.9887 15.452 12.613 15.4701 12.2691 15.3527C11.9252 15.2354 11.6388 14.9915 11.4682 14.6707C11.2976 14.3498 11.2555 13.9761 11.3506 13.6253C11.4456 13.2746 11.6706 12.9732 11.9799 12.7823V12.7823Z" fill="#3E3E52"/>
<path d="M2.66258 5.53761C2.6937 4.86816 2.98916 4.23841 3.48411 3.78658C3.97907 3.33475 4.63307 3.09775 5.30258 3.12761H12.9226C13.5528 3.09055 14.1732 3.29724 14.6553 3.70489C15.1375 4.11254 15.4444 4.68995 15.5126 5.31761C15.5126 8.93761 15.5126 12.3176 15.5126 15.5276C15.471 16.0349 15.268 16.5154 14.9332 16.8988C14.5985 17.2822 14.1496 17.5481 13.6526 17.6576H13.5226H4.68258C4.19804 17.5837 3.74739 17.3643 3.39025 17.0286C3.03312 16.6929 2.78634 16.2567 2.68258 15.7776C2.66774 15.6313 2.66774 15.4839 2.68258 15.3376C2.68258 12.0376 2.68258 9.79761 2.68258 6.47761L2.66258 5.53761ZM5.51258 18.6576L3.17258 21.0876L3.04258 21.2476L2.81258 21.5376H1.95258L4.79258 18.6476L5.51258 18.6576ZM6.68258 18.6576H11.6826L13.3826 20.2676H4.90258L6.69258 18.6576H6.68258ZM13.4126 18.6576L16.2726 21.5376H15.4026L15.1326 21.1776L12.8326 18.6476L13.4126 18.6576ZM6.22258 2.16761H5.30258C4.8442 2.15158 4.38715 2.22606 3.95758 2.38679C3.528 2.54752 3.13432 2.79135 2.79904 3.10433C2.46377 3.41732 2.19348 3.79332 2.00362 4.21084C1.81376 4.62836 1.70807 5.07922 1.69258 5.53761C1.69258 8.85761 1.69258 12.0976 1.69258 15.3976C1.68272 15.6193 1.7029 15.8413 1.75258 16.0576C1.86293 16.5877 2.10355 17.0819 2.45272 17.4957C2.8019 17.9094 3.24863 18.2297 3.75258 18.4276L0.602578 21.7476C0.546336 21.8202 0.511643 21.9072 0.502457 21.9986C0.49327 22.09 0.509961 22.1822 0.550624 22.2645C0.591287 22.3469 0.654286 22.4162 0.732431 22.4645C0.810575 22.5128 0.90072 22.5381 0.992578 22.5376H2.99258C3.66258 22.5376 3.89258 21.6776 4.31258 21.2576H14.0026C14.4226 21.6776 14.6526 22.5176 15.3426 22.5376H17.2126C17.3026 22.539 17.3911 22.5151 17.4682 22.4686C17.5453 22.4221 17.6077 22.3549 17.6483 22.2746C17.689 22.1943 17.7063 22.1042 17.6982 22.0145C17.6901 21.9249 17.657 21.8393 17.6026 21.7676L14.4526 18.4376C15.0378 18.2025 15.5431 17.8042 15.9083 17.29C16.2735 16.7759 16.4833 16.1676 16.5126 15.5376C16.5126 12.2776 16.5126 8.93761 16.5126 5.31761C16.4459 4.42704 16.0324 3.59817 15.3611 3.00915C14.6898 2.42014 13.8143 2.11798 12.9226 2.16761H12.0226" fill="#3E3E52"/>
<path d="M11.1595 2.75233H7.83954C7.37954 2.75233 7.32954 2.31233 7.35954 1.94233C7.36209 1.81583 7.41349 1.69522 7.50295 1.60575C7.59242 1.51628 7.71303 1.46489 7.83954 1.46233H11.1595C11.286 1.46489 11.4066 1.51628 11.4961 1.60575C11.5856 1.69522 11.637 1.81583 11.6395 1.94233C11.6695 2.31233 11.6195 2.74233 11.1595 2.75233Z" fill="#3E3E52"/>
</svg>
