<svg width="24" height="24" viewBox="0 0 24 24" fill="none" xmlns="http://www.w3.org/2000/svg">
<path d="M18.4724 5.37506C18.248 5.60157 18.1174 5.90438 18.1065 6.22302C18.1006 6.39742 18.1308 6.57117 18.1952 6.73336C18.2596 6.89554 18.3569 7.04266 18.4809 7.16547C18.6048 7.28828 18.7529 7.38413 18.9156 7.44701C19.0784 7.50989 19.2525 7.53843 19.4268 7.53085C19.6012 7.52327 19.772 7.47973 19.9288 7.40296C20.0855 7.32619 20.2246 7.21785 20.3375 7.08474C20.4503 6.95164 20.5345 6.79664 20.5845 6.62947C20.6346 6.46231 20.6496 6.2866 20.6286 6.11336C20.5902 5.79687 20.4337 5.50653 20.1905 5.30036C19.9474 5.09418 19.6353 4.98735 19.3168 5.0012C18.9983 5.01504 18.6967 5.14856 18.4724 5.37506Z" fill="#3E3E52"/>
<path d="M19.562 8.11707L21.1968 10.2105V10.2205C21.5121 10.6257 21.6649 11.134 21.6255 11.646L21.446 13.6397C21.4401 13.7052 21.4214 13.7688 21.3909 13.827C21.3604 13.8853 21.3188 13.9369 21.2683 13.979C21.2179 14.0211 21.1596 14.0529 21.0969 14.0725C21.0342 14.0921 20.9682 14.0992 20.9027 14.0933C20.8373 14.0874 20.7736 14.0687 20.7154 14.0382C20.6572 14.0077 20.6056 13.966 20.5634 13.9156C20.5213 13.8651 20.4895 13.8069 20.4699 13.7442C20.4503 13.6814 20.4433 13.6155 20.4492 13.55L20.6286 11.5563C20.6519 11.3022 20.577 11.0489 20.4193 10.8485L19.7314 9.96127L19.8411 12.4933L20.0604 15.6634L20.808 18.3948C20.8246 18.457 20.8286 18.5218 20.82 18.5856C20.8114 18.6493 20.7903 18.7108 20.7579 18.7663C20.7255 18.8219 20.6824 18.8705 20.6311 18.9094C20.5798 18.9483 20.5214 18.9767 20.4591 18.9929C20.4165 19.0024 20.3722 19.0024 20.3295 18.9929C20.2213 18.9946 20.1156 18.9602 20.0289 18.8953C19.9423 18.8303 19.8798 18.7384 19.851 18.634L19.0835 15.8029L18.914 13.3506L17.4984 14.1681L18.1165 16.7001C18.1343 16.763 18.1391 16.8288 18.1305 16.8936C18.1219 16.9584 18.1001 17.0208 18.0664 17.0768C18.0328 17.1328 17.9881 17.1814 17.935 17.2195C17.8818 17.2576 17.8215 17.2844 17.7576 17.2982H17.638C17.5275 17.297 17.4206 17.2592 17.334 17.1906C17.2474 17.122 17.186 17.0266 17.1595 16.9194L17 16.2415C17.0152 16.1224 17.0152 16.0018 17 15.8827V13.231L18.7944 12.2341L18.6947 9.04415L17.0299 9.37312V8.37625L19.0236 7.98747H19.0934H19.1931H19.3028H19.3725C19.4205 8.00065 19.4648 8.0245 19.5021 8.05725L19.562 8.11707Z" fill="#3E3E52"/>
<path d="M13.1895 4.16234H5.00955C4.74563 4.16213 4.48429 4.21415 4.24058 4.31542C3.99687 4.41668 3.7756 4.56517 3.58955 4.75234C2.66955 5.57234 3.07955 7.34234 2.99955 8.56234C2.99955 9.09277 3.21026 9.60148 3.58533 9.97655C3.96041 10.3516 4.46911 10.5623 4.99955 10.5623H13.1795C13.71 10.5623 14.2187 10.3516 14.5938 9.97655C14.9688 9.60148 15.1795 9.09277 15.1795 8.56234V6.16234C15.1796 5.63363 14.9702 5.12644 14.5973 4.75165C14.2244 4.37686 13.7182 4.16498 13.1895 4.16234V4.16234ZM5.00955 9.57234C4.73979 9.55466 4.48672 9.43553 4.30121 9.23889C4.1157 9.04224 4.01149 8.78267 4.00955 8.51234V6.16234C4.02392 5.9018 4.13389 5.65571 4.3184 5.4712C4.50292 5.28668 4.749 5.17671 5.00955 5.16234H13.1895C13.4589 5.16445 13.7173 5.26899 13.9123 5.45472C14.1073 5.64045 14.2243 5.89346 14.2395 6.16234V8.51234C14.2396 8.79174 14.1293 9.05985 13.9326 9.25836C13.736 9.45686 13.4689 9.5697 13.1895 9.57234" fill="#3E3E52"/>
<path d="M5.43036 15.4723C5.82818 15.5108 6.22499 15.3896 6.53349 15.1355C6.84198 14.8814 7.0369 14.5152 7.07536 14.1173C7.11381 13.7195 6.99266 13.3227 6.73855 13.0142C6.48443 12.7057 6.11818 12.5108 5.72036 12.4723C5.32253 12.4339 4.92572 12.555 4.61723 12.8091C4.30873 13.0633 4.11381 13.4295 4.07536 13.8273C4.0369 14.2252 4.15805 14.622 4.41217 14.9305C4.66628 15.239 5.03253 15.4339 5.43036 15.4723V15.4723Z" fill="#3E3E52"/>
<path d="M11.9799 12.7823C12.1462 12.6797 12.3319 12.6122 12.5254 12.5841C12.7189 12.5561 12.9161 12.5679 13.1048 12.6191C13.2935 12.6702 13.4697 12.7595 13.6225 12.8814C13.7754 13.0033 13.9016 13.1553 13.9934 13.3279C14.0852 13.5005 14.1406 13.6902 14.1562 13.885C14.1718 14.0799 14.1473 14.2759 14.0842 14.461C14.0211 14.646 13.9207 14.8162 13.7892 14.9609C13.6578 15.1056 13.498 15.2218 13.3199 15.3023C12.9887 15.452 12.613 15.4701 12.2691 15.3527C11.9252 15.2354 11.6388 14.9915 11.4682 14.6707C11.2976 14.3498 11.2555 13.9761 11.3506 13.6253C11.4456 13.2746 11.6706 12.9732 11.9799 12.7823V12.7823Z" fill="#3E3E52"/>
<path d="M2.66258 5.53761C2.6937 4.86816 2.98916 4.23841 3.48411 3.78658C3.97907 3.33475 4.63307 3.09775 5.30258 3.12761H12.9226C13.5528 3.09055 14.1732 3.29724 14.6553 3.70489C15.1375 4.11254 15.4444 4.68995 15.5126 5.31761C15.5126 8.93761 15.5126 12.3176 15.5126 15.5276C15.471 16.0349 15.268 16.5154 14.9332 16.8988C14.5985 17.2822 14.1496 17.5481 13.6526 17.6576H13.5226H4.68258C4.19804 17.5837 3.74739 17.3643 3.39025 17.0286C3.03312 16.6929 2.78634 16.2567 2.68258 15.7776C2.66774 15.6313 2.66774 15.4839 2.68258 15.3376C2.68258 12.0376 2.68258 9.79761 2.68258 6.47761L2.66258 5.53761ZM5.51258 18.6576L3.17258 21.0876L3.04258 21.2476L2.81258 21.5376H1.95258L4.79258 18.6476L5.51258 18.6576ZM6.68258 18.6576H11.6826L13.3826 20.2676H4.90258L6.69258 18.6576H6.68258ZM13.4126 18.6576L16.2726 21.5376H15.4026L15.1326 21.1776L12.8326 18.6476L13.4126 18.6576ZM6.22258 2.16761H5.30258C4.8442 2.15158 4.38715 2.22606 3.95758 2.38679C3.528 2.54752 3.13432 2.79135 2.79904 3.10433C2.46377 3.41732 2.19348 3.79332 2.00362 4.21084C1.81376 4.62836 1.70807 5.07922 1.69258 5.53761C1.69258 8.85761 1.69258 12.0976 1.69258 15.3976C1.68272 15.6193 1.7029 15.8413 1.75258 16.0576C1.86293 16.5877 2.10355 17.0819 2.45272 17.4957C2.8019 17.9094 3.24863 18.2297 3.75258 18.4276L0.602578 21.7476C0.546336 21.8202 0.511643 21.9072 0.502457 21.9986C0.49327 22.09 0.509961 22.1822 0.550624 22.2645C0.591287 22.3469 0.654286 22.4162 0.732431 22.4645C0.810575 22.5128 0.90072 22.5381 0.992578 22.5376H2.99258C3.66258 22.5376 3.89258 21.6776 4.31258 21.2576H14.0026C14.4226 21.6776 14.6526 22.5176 15.3426 22.5376H17.2126C17.3026 22.539 17.3911 22.5151 17.4682 22.4686C17.5453 22.4221 17.6077 22.3549 17.6483 22.2746C17.689 22.1943 17.7063 22.1042 17.6982 22.0145C17.6901 21.9249 17.657 21.8393 17.6026 21.7676L14.4526 18.4376C15.0378 18.2025 15.5431 17.8042 15.9083 17.29C16.2735 16.7759 16.4833 16.1676 16.5126 15.5376C16.5126 12.2776 16.5126 8.93761 16.5126 5.31761C16.4459 4.42704 16.0324 3.59817 15.3611 3.00915C14.6898 2.42014 13.8143 2.11798 12.9226 2.16761H12.0226" fill="#3E3E52"/>
<path d="M11.1595 2.75233H7.83954C7.37954 2.75233 7.32954 2.31233 7.35954 1.94233C7.36209 1.81583 7.41349 1.69522 7.50295 1.60575C7.59242 1.51628 7.71303 1.46489 7.83954 1.46233H11.1595C11.286 1.46489 11.4066 1.51628 11.4961 1.60575C11.5856 1.69522 11.637 1.81583 11.6395 1.94233C11.6695 2.31233 11.6195 2.74233 11.1595 2.75233Z" fill="#3E3E52"/>
</svg>
